<svg xmlns="http://www.w3.org/2000/svg" id="logo_entesa" xmlns:xlink="http://www.w3.org/1999/xlink" viewBox="0 0 198.4 198.4">
  <style>
    .st0{clip-path:url(#SVGID_2_);fill:#FFFFFF;} .st1{clip-path:url(#SVGID_2_);fill:#C1002B;} .st2{clip-path:url(#SVGID_2_);fill:none;stroke:#C1002B;stroke-width:0.255;stroke-miterlimit:3.864;} .st3{clip-path:url(#SVGID_2_);fill:none;stroke:#FFFFFF;stroke-width:0.741;stroke-miterlimit:3.864;}
  </style>
  <defs>
    <path id="SVGID_1_" d="M0 0h198.4v198.4H0z"/>
  </defs>
  <clipPath id="SVGID_2_">
    <use xlink:href="#SVGID_1_" overflow="visible"/>
  </clipPath>
  <path d="M117.8 162.6c5.3-5.9 17.3-20.3 19.5-26.6 1.5-4.5 2.1-7.8 2-13.9-.1-9.9-4.6-12.7-5.7-14.9-2.7-3.5-8.1-7.9-8.5-8.2-1 .3-34.7-1.5-37.2-1.6l-.3.3c.1 4.8.2 10.3.9 14.8-.2.6.8.6 1.1.9 3.1 0 27.1 1.6 32.7 1.9-.5 4.1-1.3 8.3-1.8 12.3-2.7-.6-42.4-3.5-46.9-4.2-.2-2.3 3.1-61.6 3.8-64.1 0 0 7.3-.7 11.9-1.2 6.6-.7 12.1-.9 16.9-1.7v12.5c-1.1.2-17.8 1-17.8 1-.2.4-.6.5-.6.5-.3 1.4.2 18.3.2 18.3l.7.5s24.2-1.8 32.5-2.1c.3-.2 1-.2 1-.7-.3-1.6-7-19.4-3.1-32.7 3.8-13 21.4-32.4 21.4-32.4l16.2 14.6c-2.5 3-5.8 7.1-9.2 11.9-5 6.9-10.5 11.1-12 18.4-2.4 12 2.8 18.3 9.7 27.1 5.4 6.8 14.4 13 17.5 22.2 3.6 11.9 2 18.2-.5 25.7-1.1 3.3-6.2 12.7-12.3 20.4-5.4 6.7-9.2 9.7-15.1 15.9v.3c-.1-.1-.2-.1-.3 0l-16.7-15.2z" class="st0"/>
  <path d="M.1 99.2C.1 44.5 44.4.1 99.2.1s99.1 44.3 99.1 99.1-44.3 99.1-99.1 99.1S.1 153.9.1 99.2" class="st1"/>
  <circle cx="99.2" cy="99.2" r="99.1" class="st2"/>
  <path d="M111 167.8c5.3-5.9 24.2-27.8 26.3-34.1 1.5-4.5 2.1-7.8 2-13.9-.1-10-4.6-12.8-5.7-14.9-2.8-3.5-7.5-7.3-7.8-7.7-1 .3-35.4-1.3-37.9-1.4l-.3.3c.1 4.8.2 9.6.9 14.1-.2.6.8.6 1.1.9 3.2 0 27.2 1.6 32.8 1.9-.5 4.1-1.3 9.7-1.8 13.8-2.7-.6-43.9-3.5-48.4-4.2-.2-2.3 3.2-64.6 3.8-67 0 0 8.2-.7 13.4-1.2 6.6-.6 12.1-.9 16.9-1.7v14c-1.1.2-17.8 1-17.8 1-.2.4-.6.5-.6.5-.4 1.1.1 16.6.1 16.6l.7.5s24.3-1.8 32.6-2.1c.3-.2.7.9.6.4-.3-1.6-6.6-19.1-2.7-32.4 3.8-13 21.4-32.5 21.4-32.5l16.2 14.6c-2.5 3-5.8 7.1-9.3 11.9-5 7-10.5 11.1-12 18.5-2.4 12 2.8 18.3 9.7 27.1 5.4 6.8 14.4 13 17.5 22.2 3.6 11.9 2 18.2-.5 25.7-1.1 3.3-6.2 12.7-12.4 20.4-5.4 6.7-21.9 23.7-21.9 23.7-2.2-1.4-16.9-15-16.9-15" class="st0"/>
  <path d="M111 167.8c5.3-5.9 24.2-27.8 26.3-34.1 1.5-4.5 2.1-7.8 2-13.9-.1-10-4.6-12.8-5.7-14.9-2.8-3.5-7.5-7.3-7.8-7.7-1 .3-35.4-1.3-37.9-1.4l-.3.3c.1 4.8.2 9.6.9 14.1-.2.6.8.6 1.1.9 3.2 0 27.2 1.6 32.8 1.9-.5 4.1-1.3 9.7-1.8 13.8-2.7-.6-43.9-3.5-48.4-4.2-.2-2.3 3.2-64.6 3.8-67 0 0 8.2-.7 13.4-1.2 6.6-.6 12.1-.9 16.9-1.7v14c-1.1.2-17.8 1-17.8 1-.2.4-.6.5-.6.5-.4 1.1.1 16.6.1 16.6l.7.5s24.3-1.8 32.6-2.1c.3-.2.7.9.6.4-.3-1.6-6.6-19.1-2.7-32.4 3.8-13 21.4-32.5 21.4-32.5l16.2 14.6c-2.5 3-5.8 7.1-9.3 11.9-5 7-10.5 11.1-12 18.5-2.4 12 2.8 18.3 9.7 27.1 5.4 6.8 14.4 13 17.5 22.2 3.6 11.9 2 18.2-.5 25.7-1.1 3.3-6.2 12.7-12.4 20.4-5.4 6.7-21.9 23.7-21.9 23.7-2.2-1.4-16.9-15-16.9-15z" class="st3"/>
</svg>
